<?xml version="1.0" encoding="utf-8"?>
<!-- Generator: Adobe Illustrator 26.2.1, SVG Export Plug-In . SVG Version: 6.00 Build 0)  -->
<svg version="1.1" id="Layer_1" xmlns="http://www.w3.org/2000/svg" xmlns:xlink="http://www.w3.org/1999/xlink" x="0px" y="0px"
	 viewBox="0 0 512 512" style="enable-background:new 0 0 512 512;" xml:space="preserve">
<style type="text/css">
	.st0{fill:#CC202E;}
	.st1{fill:#FFFFFF;}
	.st2{fill:url(#SVGID_1_);}
	.st3{fill:url(#SVGID_00000153691335550440315000000018213456359509186444_);}
	.st4{fill:url(#SVGID_00000071555228257347549840000014935078306441205904_);}
</style>
<g>
	<path class="st0" d="M447.35,436.02c0,0-31.48-20.42-40.2-68.94c-4.71-26.32,7.85-44.95,7.85-44.95
		c6.46,5.08,10.98,6.75,16.41,8.38c15.05,4.52,28.76-5.1,28.76-5.1c-2.23,18.7-16.6,39.14-16.6,39.14s50.85-8.01,64.25-55.16
		c18.37-64.74-29.77-109.26-29.77-109.26c-4.29-65.41-42.61-105.23-42.61-105.23c0.35,4.71-0.58,11.75-0.58,11.75
		s-19.57-17.69-90.94-35.53C270.4,52.75,205.8,52.98,205.8,52.98c7.43,5.24,14.12,12.45,14.12,12.45
		C135.23,80.3,91.87,148.61,91.87,148.61c6.65-0.72,12.8-0.76,12.8-0.76c-59.31,59.31-84.61,133.31-84.61,133.31
		c8.92-5,22.55-9.91,22.55-9.91C12.7,333.22,0,390,0,390s46.14-20.69,98.69-11.62c77.85,13.42,114.98,80.64,235.46,80.64
		C401.23,459.02,447.35,436.02,447.35,436.02"/>
	<path d="M473.01,209.89c0,0,32.85,31.53,29.52,78.18c-3.32,46.66-42.01,61.92-42.01,61.92c6.28-10.74,12.92-31.01,9.83-42.53
		c-10.2,9.23-24.92,18.23-37.41,14.04c-6.94-2.33-13.4-7.87-21.55-13.98c-7.37,9.29-18.66,28.64-15.69,57.6
		c4.42,42.92,30.06,66.42,30.06,66.42C258.73,485.49,190,381.04,109.61,367c-55.16-9.64-92.06,3.82-92.06,3.82
		c16.02-52.32,35.94-96.27,49.63-123.56c-9.52,4.15-20.13,9.15-27.46,13.67c0,0,34.58-75.96,92.27-124
		c-10.63,0-18.52,0.43-18.52,0.43s27.11-33.94,73.91-52.3c20.15-7.91,35.24-12.22,61.83-10.88c-7.14-5.62-13.11-9.74-13.11-9.74
		s58.94,2.99,118.24,19.74c49.94,14.12,72.98,26.36,84.75,43.5c1.05-5.14,1.4-9.39,1.4-9.39c20.98,32.08,24.67,67.49,25.31,80.1
		C471.13,204.87,473.01,209.89,473.01,209.89 M344.33,207.99c-12.14-0.35-22.01-9.6-22.01-21.43c0-3.26,0.74-6.34,2.09-9.1
		c-6.46-3.45-13.34-6.57-20.89-8.75c3.49,2.27,8.55,5.64,12.88,8.88c-0.85,3.12-1.14,6.48-0.76,9.93
		c1.53,14.1,13.46,23.74,26.78,22.92c5.1-0.31,9.35-2.02,12.7-4.71C352.03,207.27,348.41,208.11,344.33,207.99z"/>
	<path class="st1" d="M373.52,368.53c-30.14-21.74-55.06-57-55.06-57s-7,2.15-16.02,1.05c-7.68-0.95-13.92-6.36-27.33-17.76
		c-13.44-11.42-39.02-34.04-39.02-34.04c-48.95,23.8-65.53,41.58-84.67,41.58c-10.3,0-21.39-10.36-21.39-10.36
		c-27.44,15.5-52.85,32.27-62.18,38.55c9.06-25.56,33.28-89.33,59.58-120.55c0,0-12.74,1.69-27.87,6.65
		c27.75-55.33,82.44-92.06,82.44-92.06c-8.94-0.81-16.48-0.91-21.43-0.83c9.85-9.46,26.53-21.45,51.88-27.85
		c31.17-7.89,63.92-2.35,77.46,0.12c0,0-3.06-3.84-9.13-8.53c17.86,2.97,45.5,8.09,71.35,15.11c49.69,13.5,77.61,27.19,85.78,62.97
		c2.31-4.71,3.96-8.94,5.14-12.51c3.28,8.03,6.63,18.93,7.54,31.55c-6.46-4.36-14.6-8.44-24.82-11.46
		c-23,26.45-22.65,61.77-22.36,68.65c-13.44,5.66-39.12-1.03-67.78,10.67c-33.28,13.58-44.41,40.16-44.41,40.16
		s24.26-10.84,62.93-7.56c16.87,1.42,29.54,5.82,39.68,11.11C385.37,307.31,370.86,332.11,373.52,368.53 M396.42,194.82
		c1.94-5.35,2.6-10.01,2.5-14.02c0.04-2-0.23-4.05-0.76-6.09c-1.63-6.98-5.31-10.59-5.31-10.59s0.43,15.94-16.78,14.45
		c-1.69-0.14-3.53-0.56-5.51-1.16c-10.76-3.86-24.77-13.71-38.03-22.5c-16.68-11.09-31.28-11.97-31.28-11.97
		c2.85,2.21,5.68,5.84,7.97,9.17c-20.69-4.75-44.08-3.57-68.54,13.94c0,0,21.06-5.04,49.78-0.21c-1.34,10.94-2.31,41.79,27.21,52.96
		c32.17,12.18,49.61-5.45,57.17-17.09c-1.61,11.62-6.69,19.86-6.69,19.86S389.56,213.63,396.42,194.82 M220.47,198.08
		c5.08-0.41,15.09-1.51,22.83-4.09c0,0-7.89-1.59-13.87-3.57c10.88-8.88,18.68-13.81,18.68-13.81
		C163.55,201.51,128,277.69,128,277.69s54.01-8.22,84.85-36.03c0,0-13.28-1.05-27.58-3.78c3.47-5.18,7.18-10.12,11-14.74
		c6.28-0.33,20.77-1.94,33.36-9.54c0,0-11.71-1.32-21.26-3.92C212.5,205.43,216.57,201.57,220.47,198.08 M245.76,131.85
		c0,0-6.38-1.86-11.23-3.9c9.77-6.85,16.5-10.32,16.5-10.32c-72.65,14.97-106.92,77.71-106.92,77.71s45.5-4.09,73.31-25.27
		c0,0-11.09-1.98-22.85-5.29c3.2-3.92,6.48-7.6,9.79-11.02c5.33-0.02,17.67-0.74,28.78-6.23c0,0-9.58-1.9-17.38-4.71
		c3.72-3.3,7.35-6.3,10.8-8.96C230.2,133.95,237.01,133.79,245.76,131.85 M339.23,185.96c5.2,3.1,10.24,6.03,15.26,8.36
		c-1.45,2.81-4.36,4.71-7.72,4.71c-4.81,0-8.71-3.9-8.71-8.71C338.03,188.75,338.46,187.26,339.23,185.96"/>
	
		<linearGradient id="SVGID_1_" gradientUnits="userSpaceOnUse" x1="5.5752" y1="5.643" x2="7.6398" y2="5.643" gradientTransform="matrix(-0.2818 35.219 35.219 0.2818 289.9188 51.3269)">
		<stop  offset="0" style="stop-color:#7798AD"/>
		<stop  offset="0.25" style="stop-color:#A5C2D2"/>
		<stop  offset="0.5" style="stop-color:#7798AD"/>
		<stop  offset="0.75" style="stop-color:#A5C2D2"/>
		<stop  offset="1" style="stop-color:#7798AD"/>
	</linearGradient>
	<path class="st2" d="M486.27,249.84c-2,2.17-4.34,5.86-5.78,12.14c0,0,4.13,6.61,6.59,16.99c3.47,14.74-0.58,31.03-5.37,42.01
		c5.16-7.87,15.98-28.39,9.74-55.1C490.06,260,488.29,254.65,486.27,249.84z"/>
	
		<linearGradient id="SVGID_00000149340488889983945850000008739192786335184538_" gradientUnits="userSpaceOnUse" x1="5.847" y1="5.2781" x2="7.9115" y2="5.2781" gradientTransform="matrix(-40.429 42.2201 42.2201 40.429 477.673 -250.9019)">
		<stop  offset="0" style="stop-color:#9C772C"/>
		<stop  offset="0.25" style="stop-color:#CEAE5C"/>
		<stop  offset="0.5" style="stop-color:#9C772C"/>
		<stop  offset="0.75" style="stop-color:#CEAE5C"/>
		<stop  offset="1" style="stop-color:#9C772C"/>
	</linearGradient>
	<path style="fill:url(#SVGID_00000149340488889983945850000008739192786335184538_);" d="M460.42,297.9
		c-6.36-2.11-12.3-1.03-12.3-1.03C426.62,263.92,364,266.91,364,266.91s51.53-13.61,92.27,19.26c0,0,3.01-15.57,12.86-23.43
		c0,0,2.5-15.53,11.85-23.62c-5.7-9.97-11.83-16.48-15.28-19.72c-10.16,8.05-11.5,24.92-11.5,24.92
		c-11.13,0-28.95,13.07-28.95,13.07c7.31-13.07,22.61-18.91,22.61-18.91c1.69-17.47,12.84-25.72,12.84-25.72
		c-8.57-18.68-30.95-26.41-30.95-26.41s-18.4,23.25-12.33,64.93c-9,6.28-21.88,6.19-36.05,6.13c-10.08-0.06-20.81-0.1-31.28,2.13
		c-15.5,3.3-25.95,11.75-30.1,15.63c8.11-1.55,18.97-2.6,32.74-1.9c51.49,2.66,69.27,26.65,81.65,32.76
		C441.82,309.69,451.85,305.44,460.42,297.9z M424.06,217.2c0,0,7.82,8.57,19.51,12.61c0,0-1.53,4.13-8.13,5.12
		c-1.01,0.14-2,0.23-2.91,0.23c-6.36,0-10.24-3.18-10.24-3.18s4.15-0.39,5.8-1.86C428.09,230.1,424.91,226.47,424.06,217.2z"/>
	
		<linearGradient id="SVGID_00000149378058330441909380000002747985614715420821_" gradientUnits="userSpaceOnUse" x1="4.5627" y1="6.597" x2="6.6273" y2="6.597" gradientTransform="matrix(119.4047 40.6486 -40.6486 119.4047 -145.3056 -669.7551)">
		<stop  offset="0" style="stop-color:#7798AD"/>
		<stop  offset="0.25" style="stop-color:#A5C2D2"/>
		<stop  offset="0.5" style="stop-color:#7798AD"/>
		<stop  offset="0.75" style="stop-color:#A5C2D2"/>
		<stop  offset="1" style="stop-color:#7798AD"/>
	</linearGradient>
	<path style="fill:url(#SVGID_00000149378058330441909380000002747985614715420821_);" d="M346.66,397.76l-16.91-1.09l23.12,9.48
		c3.67,4.81,7.43,9.48,11,13.48c5.26-0.72,10.65-1.67,16.17-2.83c-10.41-8.98-28.72-24.92-50.93-44.8
		C329.11,372.02,336.94,384.32,346.66,397.76 M318.15,420.6c6.07,0.6,12.3,0.91,18.7,0.91c0,0,2.25-0.02,2.87-0.02l-21.68-32.93
		l-7.41-0.7l-18.64-23.93L318.15,420.6z M259.08,405.4c4.46,1.84,9,3.55,13.63,5.14l-7.72-25.85l17.84,29.05l-0.91-12.76l13.15-2.68
		l-18.21-8.73l-4.69-10.3l-8.24-3.03l-16.99-29.32L259.08,405.4z M95.69,334.26l0.41,0.04c6.77-3.18,26.1-12.04,39.43-16.08
		c0,0-10.63,11.07-18.56,19.2c4.89,0.97,9.72,2.25,14.51,3.76l9.58-21.43l1.51,17.3l7.66,4.75l-5.18,4.29
		c6.61,2.68,13.15,5.78,19.68,9.1l-5.55-18.44l33.45,33.82l-15.57-38.11c0,0-15.15,0.33-26.36-2.83c0,0,13.07-5.99,21.43-16.17
		c-6.23,3.03-11.75,4.75-17.51,4.75c-10.3,0-21.29-6.54-25-8.98C123.27,313.26,107.19,323.79,95.69,334.26 M215.64,317.12l-6.9,2.64
		l5.9,32.79l-17.51-23.91l22.63,57.52c0.23,0.12,0.45,0.25,0.66,0.37l-1.73-32.1l21.55,38.13l-8.63-44.2l6.36-10.74l-18.44-2.13
		l8.2-17.24l-0.54-33.07L215.64,317.12z M249.27,305.23l-7.78,15.3l10.92,3.76l25.04,38.79l-0.47-27.81l37.78,31.92l-22.85-29.89
		c6.48,3.32,18.4,4.93,18.4,4.93c19.96,18.27,42.08,35.61,65.84,51.14c-15.24-13.25-48.64-43.07-66.05-64.29
		c-1.34,0.17-2.79,0.25-4.38,0.17c-12.92-0.6-22.24-8.3-35.68-19.72c-9.52-8.09-26.82-22.46-36.07-30.14L249.27,305.23z"/>
</g>
</svg>
